<?xml version="1.0" encoding="UTF-8" standalone="no"?>
<svg
   xmlns:dc="http://purl.org/dc/elements/1.1/"
   xmlns:cc="http://creativecommons.org/ns#"
   xmlns:rdf="http://www.w3.org/1999/02/22-rdf-syntax-ns#"
   xmlns:svg="http://www.w3.org/2000/svg"
   xmlns="http://www.w3.org/2000/svg"
   xmlns:xlink="http://www.w3.org/1999/xlink"
   id="svg1903"
   version="1.1"
   viewBox="0 0 79.375 21.06743"
   height="21.06743mm"
   width="79.375mm">
  <defs
     id="defs1897">
    <linearGradient
       gradientTransform="matrix(0.29200189,0,0,0.29200189,-872.6929,429.19923)"
       gradientUnits="userSpaceOnUse"
       y2="-1070.3909"
       x2="3358.96"
       y1="-1127.7812"
       x1="3354.8105"
       id="linearGradient3293"
       xlink:href="#linearGradient3291" />
    <linearGradient
       id="linearGradient3291">
      <stop
         id="stop3287"
         offset="0"
         style="stop-color:#eec436;stop-opacity:1;" />
      <stop
         id="stop3289"
         offset="1"
         style="stop-color:#ee9936;stop-opacity:1" />
    </linearGradient>
  </defs>
  <metadata
     id="metadata1900">
    <rdf:RDF>
      <cc:Work
         rdf:about="">
        <dc:format>image/svg+xml</dc:format>
        <dc:type
           rdf:resource="http://purl.org/dc/dcmitype/StillImage" />
        <dc:title></dc:title>
      </cc:Work>
    </rdf:RDF>
  </metadata>
  <g
     transform="translate(-75.771428,-89.96326)"
     id="layer1">
    <path
       d="m 101.80295,89.964311 c -1.76051,0.01744 -3.389167,0.190906 -4.948639,0.428892 l -0.02163,0.0022 -0.02163,0.0066 c -2.802104,0.607482 -5.545119,2.049506 -8.214831,4.315025 -1.96765,1.304236 -4.223777,1.834684 -6.636796,2.13869 -1.133405,-0.117735 -1.251195,1.220216 -0.114049,1.170277 2.708428,0.120307 5.67996,-0.868788 7.58063,-2.106177 l 0.03708,-0.0234 0.03189,-0.02792 c 2.539517,-2.165431 5.074763,-3.482921 7.615439,-4.035563 1.50503,-0.228628 3.044806,-0.394581 4.705656,-0.411191 1.67301,-0.01677 3.46672,0.117736 5.46418,0.489339 6.01104,1.223218 7.91027,3.578893 11.52554,5.694616 0.12891,0.123342 1.43163,0.438174 1.98643,0.230394 0.55468,-0.207759 0.49088,-1.080619 0.195,-1.321431 -0.29589,-0.240779 -1.02417,-0.215704 -1.54949,-0.238947 -0.52545,-0.02329 -5.61935,-4.528036 -11.87914,-5.79839 l -0.011,-0.0022 v 0 c -2.09071,-0.388952 -3.98432,-0.527822 -5.74472,-0.510429 z m 21.41427,5.118025 v 8.517674 2.07537 1.15434 h 1.42236 v -2.64398 l 1.00375,-1.05396 3.07912,3.69794 h 1.85807 l -3.93289,-4.73591 2.79461,-2.928587 -1.02097,-0.987229 -3.78169,3.932916 v -7.028574 z m -20.43215,0.01655 v 11.730854 h 1.43891 v -0.93703 c 0.35692,0.39047 0.77552,0.69736 1.25527,0.92048 0.47964,0.212 0.99856,0.31825 1.55634,0.31825 0.55777,0 1.0767,-0.11166 1.55645,-0.33477 0.49089,-0.23431 0.91479,-0.54657 1.27171,-0.93704 0.36817,-0.39049 0.65842,-0.84841 0.87032,-1.37276 0.21201,-0.52434 0.31774,-1.08202 0.31774,-1.67332 0,-0.60243 -0.10595,-1.16547 -0.31774,-1.68984 -0.2119,-0.52435 -0.50215,-0.97631 -0.87032,-1.355622 -0.35692,-0.390497 -0.78082,-0.697395 -1.27171,-0.920515 -0.47975,-0.234301 -0.99868,-0.351308 -1.55645,-0.351308 -0.55778,0 -1.0767,0.111633 -1.55634,0.334786 -0.47975,0.223121 -0.89835,0.524059 -1.25527,0.903365 v -4.63553 z m 51.3906,3.380273 c -0.41286,0 -0.77585,0.05607 -1.08817,0.167664 -0.30129,0.10043 -0.55204,0.217426 -0.75279,0.351307 -0.20086,0.122734 -0.35724,0.239763 -0.46882,0.35134 l -0.16709,0.167663 V 98.79738 h -1.42236 v 8.03293 h 1.42236 v -4.93723 c 0.011,-0.13388 0.0441,-0.31242 0.10043,-0.53554 0.0563,-0.23426 0.16742,-0.46297 0.33484,-0.68608 0.17846,-0.2343 0.42391,-0.42955 0.73623,-0.58573 0.32359,-0.16735 0.7529,-0.250928 1.28838,-0.250928 0.32347,0 0.58625,0.0394 0.787,0.11747 l 0.20075,-1.372749 c -0.29004,-0.06699 -0.61362,-0.10032 -0.97064,-0.10032 z m -74.38808,0.01711 c -0.557807,0 -1.082042,0.111633 -1.572925,0.334786 -0.479726,0.223121 -0.90363,0.529422 -1.271811,0.919919 -0.357002,0.390466 -0.641794,0.848386 -0.853757,1.372736 -0.211963,0.52437 -0.317669,1.08741 -0.317669,1.68984 0,0.60246 0.105728,1.16608 0.317669,1.69043 0.211963,0.52436 0.496755,0.98171 0.853757,1.37217 0.368181,0.3905 0.792085,0.69737 1.271811,0.92052 0.490883,0.22311 1.015118,0.33477 1.572925,0.33477 0.557841,0 1.076668,-0.10628 1.556404,-0.31825 0.479726,-0.22312 0.903652,-0.53001 1.271812,-0.92048 v 0.51898 c 0,0.3905 -0.04481,0.77555 -0.134025,1.15489 -0.08928,0.39047 -0.239741,0.73617 -0.451704,1.0374 -0.200806,0.31239 -0.468314,0.56315 -0.803001,0.75281 -0.334698,0.18968 -0.742445,0.28462 -1.22217,0.28462 -0.401655,0 -0.75273,-0.0835 -1.053955,-0.25095 -0.301236,-0.16735 -0.552587,-0.35721 -0.753392,-0.56917 -0.189659,-0.212 -0.334168,-0.40723 -0.434587,-0.58573 -0.08917,-0.16738 -0.13993,-0.2623 -0.151109,-0.28458 l -1.271823,0.56917 c 0.01115,0.0223 0.08939,0.1674 0.234389,0.43514 0.145039,0.26776 0.362962,0.55255 0.65304,0.85378 0.301202,0.31238 0.680365,0.59121 1.137753,0.83665 0.457421,0.2566 1.003762,0.38497 1.639684,0.38497 0.602449,0 1.149341,-0.11166 1.640225,-0.33478 0.490883,-0.22315 0.914787,-0.53596 1.271789,-0.93762 0.357002,-0.40162 0.630459,-0.88646 0.820118,-1.45542 0.200838,-0.569 0.301136,-1.19949 0.301136,-1.89118 V 98.797384 H 82.615806 V 99.73442 C 82.247646,99.343956 81.82372,99.043018 81.343994,98.831055 80.864258,98.607902 80.345431,98.496269 79.78759,98.496269 Z m 10.5811,0 c -0.60246,0 -1.166083,0.117007 -1.690428,0.351308 -0.524346,0.22312 -0.981712,0.530018 -1.372176,0.920515 -0.390497,0.390468 -0.702758,0.847798 -0.937036,1.372178 -0.22311,0.52435 -0.334775,1.08201 -0.334775,1.67328 0,0.60246 0.111665,1.16608 0.334775,1.69043 0.234278,0.52436 0.546539,0.98171 0.937036,1.37217 0.390464,0.3905 0.84783,0.69737 1.372176,0.92052 0.524345,0.22311 1.087968,0.33477 1.690428,0.33477 0.591281,0 1.148945,-0.11166 1.67329,-0.33477 0.524378,-0.22315 0.981711,-0.53002 1.372208,-0.92052 0.390464,-0.39046 0.697351,-0.84781 0.920471,-1.37217 0.234279,-0.52435 0.351892,-1.08797 0.351892,-1.69043 0,-0.59127 -0.117613,-1.14893 -0.351892,-1.67328 -0.22312,-0.52438 -0.530007,-0.98171 -0.920471,-1.372178 -0.390497,-0.390497 -0.84783,-0.697395 -1.372208,-0.920515 -0.524345,-0.234301 -1.082009,-0.351308 -1.67329,-0.351308 z m 26.34407,0 c -0.60247,0 -1.16554,0.117007 -1.68988,0.351308 -0.52433,0.22312 -0.98167,0.530018 -1.37214,0.920515 -0.39057,0.390468 -0.70334,0.847798 -0.93764,1.372178 -0.22316,0.52435 -0.33473,1.08201 -0.33473,1.67328 0,0.60246 0.11157,1.16608 0.33473,1.69043 0.2343,0.52436 0.54707,0.98171 0.93764,1.37217 0.39047,0.3905 0.84781,0.69737 1.37214,0.92052 0.52434,0.22311 1.08741,0.33477 1.68988,0.33477 0.59122,0 1.14943,-0.11166 1.67388,-0.33477 0.52433,-0.22315 0.98167,-0.53002 1.37214,-0.92052 0.39046,-0.39046 0.69738,-0.84781 0.92053,-1.37217 0.23419,-0.52435 0.35129,-1.08797 0.35129,-1.69043 0,-0.59127 -0.1171,-1.14893 -0.35129,-1.67328 -0.22315,-0.52438 -0.53007,-0.98171 -0.92053,-1.372178 -0.39047,-0.390497 -0.84781,-0.697395 -1.37214,-0.920515 -0.52445,-0.234301 -1.08266,-0.351308 -1.67388,-0.351308 z m 18.16916,0 c -0.98179,0 -1.75146,0.222713 -2.30923,0.668976 -0.55789,0.446275 -0.83667,1.026595 -0.83667,1.740605 0,0.42396 0.0949,0.77561 0.28452,1.05453 0.18971,0.26774 0.42975,0.49047 0.71979,0.66897 0.30118,0.17851 0.63558,0.3182 1.00375,0.41862 0.37931,0.0893 0.75311,0.17284 1.12128,0.25094 0.53549,0.11155 0.94857,0.22321 1.23872,0.33476 0.30118,0.11157 0.51848,0.22321 0.65246,0.33478 0.14502,0.11157 0.23397,0.2232 0.26741,0.33478 0.0331,0.11158 0.0497,0.22321 0.0497,0.33478 0,0.24546 -0.0773,0.44069 -0.23386,0.58572 -0.15617,0.14502 -0.34599,0.25609 -0.56914,0.3342 -0.21201,0.0781 -0.43528,0.12883 -0.66958,0.15115 -0.2343,0.0223 -0.43494,0.033 -0.60225,0.033 -0.49089,0 -0.92616,-0.0782 -1.30548,-0.23438 -0.37932,-0.1562 -0.64684,-0.3401 -0.803,-0.55206 l -1.27182,0.45169 c 0.11157,0.25658 0.27877,0.4912 0.50193,0.7032 0.22315,0.20081 0.47986,0.37931 0.76989,0.5355 0.29014,0.15622 0.61373,0.27323 0.97064,0.35134 0.35714,0.0892 0.73623,0.13403 1.13784,0.13403 1.11566,0 1.98554,-0.21792 2.61031,-0.65303 0.63591,-0.44627 0.95419,-1.05945 0.95419,-1.8404 0,-0.50204 -0.12305,-0.9152 -0.3685,-1.23874 -0.24533,-0.32354 -0.54629,-0.58026 -0.90332,-0.76992 -0.34587,-0.20081 -0.71427,-0.35128 -1.10473,-0.45169 -0.39046,-0.10043 -0.73612,-0.18399 -1.03741,-0.25095 -0.45735,-0.0893 -0.81978,-0.17284 -1.08763,-0.25092 -0.25648,-0.0893 -0.44642,-0.17286 -0.56914,-0.25094 -0.12272,-0.0781 -0.20086,-0.15631 -0.23441,-0.23439 -0.0221,-0.0893 -0.0331,-0.1842 -0.0331,-0.28462 0,-0.3012 0.15583,-0.54661 0.46816,-0.73625 0.32358,-0.189662 0.77011,-0.284596 1.33914,-0.284596 0.43505,0 0.81956,0.07284 1.15429,0.217836 0.34588,0.13389 0.58592,0.31241 0.71979,0.53553 l 1.27182,-0.45225 c -0.10043,-0.256607 -0.26222,-0.485279 -0.48538,-0.686084 -0.212,-0.211996 -0.46275,-0.390497 -0.75278,-0.535536 -0.29015,-0.156186 -0.61373,-0.273226 -0.97076,-0.351307 -0.34576,-0.07814 -0.70886,-0.116919 -1.08806,-0.116919 z m 9.36054,0 c -0.4686,0 -0.92054,0.08366 -1.3557,0.250955 -0.4239,0.167343 -0.80841,0.401379 -1.15428,0.702614 -0.33462,0.290067 -0.62488,0.641732 -0.87033,1.054502 -0.24544,0.40165 -0.41849,0.83688 -0.51892,1.30546 -0.0784,0.31238 -0.11699,0.64675 -0.11699,1.00375 v 0.20075 c 0.011,0.067 0.0166,0.12845 0.0166,0.18423 0.0453,0.55784 0.17901,1.07667 0.40205,1.5564 0.2343,0.47973 0.52985,0.89826 0.88688,1.25526 0.35702,0.34584 0.76426,0.61872 1.2216,0.81955 0.4686,0.20082 0.9648,0.3017 1.48913,0.3017 0.75863,0 1.45061,-0.17853 2.07537,-0.53553 0.62477,-0.36818 1.12692,-0.85358 1.50624,-1.45603 l -1.1715,-0.75337 c -0.25649,0.41278 -0.59685,0.74232 -1.02086,0.98778 -0.41276,0.24544 -0.87606,0.36784 -1.38925,0.36784 -0.33473,0 -0.65236,-0.0669 -0.95354,-0.20075 -0.29014,-0.13388 -0.55225,-0.31238 -0.78655,-0.5355 -0.22305,-0.22316 -0.41298,-0.49062 -0.56914,-0.80302 -0.14502,-0.31238 -0.23993,-0.64733 -0.28452,-1.00433 h 6.59341 c 0.011,-0.0557 0.0166,-0.11727 0.0166,-0.18423 v -0.20075 c 0,-0.357 -0.0397,-0.69137 -0.11754,-1.00375 -0.10043,-0.46858 -0.27293,-0.90381 -0.51837,-1.30546 -0.24545,-0.41277 -0.54155,-0.764435 -0.88743,-1.054502 -0.33473,-0.301235 -0.71924,-0.535271 -1.15429,-0.702614 -0.42401,-0.167355 -0.87054,-0.250955 -1.33914,-0.250955 z m -64.337951,1.38873 c 0.368193,0 0.714445,0.07825 1.037985,0.234401 0.334687,0.14503 0.624853,0.35159 0.870311,0.61936 0.245458,0.26774 0.44069,0.58001 0.585696,0.93704 0.145039,0.357 0.217305,0.73614 0.217305,1.13775 0,0.40165 -0.07229,0.78078 -0.217305,1.13779 -0.145006,0.35703 -0.340238,0.66986 -0.585696,0.93762 -0.245458,0.26774 -0.535624,0.4797 -0.870311,0.63589 -0.32354,0.14504 -0.669792,0.21728 -1.037985,0.21728 -0.368149,0 -0.719224,-0.0723 -1.053922,-0.21728 -0.323562,-0.15619 -0.60832,-0.36815 -0.853779,-0.63589 -0.245436,-0.26776 -0.44069,-0.58059 -0.585696,-0.93762 -0.133892,-0.35701 -0.200761,-0.73614 -0.200761,-1.13779 0,-0.40161 0.06688,-0.78075 0.200761,-1.13775 0.145006,-0.35703 0.34026,-0.6693 0.585696,-0.93704 0.245459,-0.26777 0.530217,-0.47433 0.853779,-0.61936 0.334698,-0.156198 0.685773,-0.234401 1.053922,-0.234401 z m 10.464181,0 c 0.401622,-2.2e-5 0.775377,0.07825 1.121233,0.234401 0.357002,0.14503 0.663888,0.35159 0.920504,0.61936 0.26774,0.26774 0.474328,0.58001 0.619334,0.93704 0.156219,0.357 0.233837,0.73614 0.233837,1.13775 0,0.40165 -0.07758,0.78078 -0.233837,1.13779 -0.145006,0.35703 -0.351594,0.66986 -0.619334,0.93762 -0.256616,0.25658 -0.563502,0.46258 -0.920504,0.61878 -0.345856,0.14504 -0.719611,0.21786 -1.121233,0.21786 -0.401643,0 -0.780784,-0.0728 -1.137786,-0.21786 -0.357002,-0.1562 -0.663899,-0.3622 -0.920504,-0.61878 -0.256583,-0.26776 -0.463171,-0.58059 -0.619368,-0.93762 -0.145006,-0.35701 -0.217282,-0.73614 -0.217282,-1.13779 0,-0.40161 0.07229,-0.78075 0.217282,-1.13775 0.156197,-0.35703 0.362785,-0.6693 0.619368,-0.93704 0.256605,-0.26777 0.563502,-0.47433 0.920504,-0.61936 0.357002,-0.156198 0.736143,-0.234401 1.137786,-0.234401 z m 16.54936,0 c 0.36828,0 0.71449,0.07825 1.03808,0.234401 0.33462,0.15618 0.62421,0.36815 0.86966,0.63589 0.24544,0.2566 0.44067,0.56348 0.58569,0.92051 0.14513,0.357 0.21797,0.73614 0.21797,1.13775 0,0.40165 -0.0728,0.78078 -0.21797,1.13779 -0.14502,0.35703 -0.34025,0.66986 -0.58569,0.93762 -0.24545,0.26774 -0.53504,0.4797 -0.86966,0.63589 -0.32359,0.14504 -0.6698,0.21728 -1.03808,0.21728 -0.36806,0 -0.71912,-0.0723 -1.05385,-0.21728 -0.32359,-0.15619 -0.60832,-0.36815 -0.85377,-0.63589 -0.24545,-0.26776 -0.44068,-0.58059 -0.5857,-0.93762 -0.13387,-0.35701 -0.20075,-0.73614 -0.20075,-1.13779 0,-0.40161 0.0673,-0.78075 0.20075,-1.13775 0.14502,-0.35703 0.34025,-0.66391 0.5857,-0.92051 0.24545,-0.26774 0.53018,-0.47971 0.85377,-0.63589 0.33473,-0.156198 0.68579,-0.234401 1.05385,-0.234401 z m 9.79471,0 c 0.40161,-2.2e-5 0.7753,0.07825 1.12118,0.234401 0.35702,0.14503 0.66394,0.35159 0.92053,0.61936 0.26775,0.26774 0.47434,0.58001 0.61936,0.93704 0.15617,0.357 0.23441,0.73614 0.23441,1.13775 0,0.40165 -0.0784,0.78078 -0.23441,1.13779 -0.14502,0.35703 -0.35161,0.66986 -0.61936,0.93762 -0.25659,0.25658 -0.56351,0.46258 -0.92053,0.61878 -0.34588,0.14504 -0.71957,0.21786 -1.12118,0.21786 -0.40161,0 -0.78082,-0.0728 -1.13784,-0.21786 -0.35702,-0.1562 -0.66383,-0.3622 -0.92043,-0.61878 -0.25659,-0.26776 -0.46319,-0.58059 -0.61935,-0.93762 -0.14513,-0.35701 -0.21731,-0.73614 -0.21731,-1.13779 0,-0.40161 0.0717,-0.78075 0.21731,-1.13775 0.15616,-0.35703 0.36276,-0.6693 0.61935,-0.93704 0.2566,-0.26777 0.56341,-0.47433 0.92043,-0.61936 0.35702,-0.156198 0.73623,-0.234401 1.13784,-0.234401 z m 27.5297,0 c 0.56903,0 1.07107,0.178501 1.50623,0.535501 0.4462,0.35704 0.76449,0.82033 0.95409,1.3893 h -4.92009 c 0.1896,-0.56897 0.50193,-1.03226 0.93698,-1.3893 0.44631,-0.357 0.95387,-0.535501 1.52279,-0.535501 z m -48.373646,2.225941 v 1.38874 h 5.087216 v -1.38874 z"
       style="color:#000000;font-style:normal;font-variant:normal;font-weight:normal;font-stretch:normal;font-size:medium;line-height:normal;font-family:sans-serif;font-variant-ligatures:normal;font-variant-position:normal;font-variant-caps:normal;font-variant-numeric:normal;font-variant-alternates:normal;font-variant-east-asian:normal;font-feature-settings:normal;font-variation-settings:normal;text-indent:0;text-align:start;text-decoration:none;text-decoration-line:none;text-decoration-style:solid;text-decoration-color:#000000;letter-spacing:normal;word-spacing:normal;text-transform:none;writing-mode:lr-tb;direction:ltr;text-orientation:mixed;dominant-baseline:auto;baseline-shift:baseline;text-anchor:start;white-space:normal;shape-padding:0;shape-margin:0;inline-size:0;clip-rule:nonzero;display:inline;overflow:visible;visibility:visible;isolation:auto;mix-blend-mode:normal;color-interpolation:sRGB;color-interpolation-filters:linearRGB;solid-color:#000000;solid-opacity:1;vector-effect:none;fill:url(#linearGradient3293);fill-opacity:1;fill-rule:nonzero;stroke:none;stroke-width:1.32292;stroke-linecap:butt;stroke-linejoin:miter;stroke-miterlimit:4;stroke-dasharray:none;stroke-dashoffset:0;stroke-opacity:1;color-rendering:auto;image-rendering:auto;shape-rendering:auto;text-rendering:auto;enable-background:accumulate;stop-color:#000000"
       id="path3221" />
  </g>
</svg>
