<?xml version="1.0" encoding="UTF-8" standalone="no"?>
<svg
   xmlns:dc="http://purl.org/dc/elements/1.1/"
   xmlns:cc="http://creativecommons.org/ns#"
   xmlns:rdf="http://www.w3.org/1999/02/22-rdf-syntax-ns#"
   xmlns:svg="http://www.w3.org/2000/svg"
   xmlns="http://www.w3.org/2000/svg"
   xmlns:xlink="http://www.w3.org/1999/xlink"
   xmlns:sodipodi="http://sodipodi.sourceforge.net/DTD/sodipodi-0.dtd"
   xmlns:inkscape="http://www.inkscape.org/namespaces/inkscape"
   sodipodi:docname="laundryon-logo.svg"
   inkscape:version="1.0 (6e3e5246a0, 2020-05-07)"
   id="svg1965"
   version="1.1"
   viewBox="0 0 53.970932 10.38226"
   height="10.38226mm"
   width="53.970932mm">
  <defs
     id="defs1959">
    <linearGradient
       id="linearGradient2556"
       inkscape:collect="always">
      <stop
         id="stop2552"
         offset="0"
         style="stop-color:#23c574;stop-opacity:1;" />
      <stop
         id="stop2554"
         offset="1"
         style="stop-color:#18b751;stop-opacity:1" />
    </linearGradient>
    <linearGradient
       gradientUnits="userSpaceOnUse"
       y2="115.90308"
       x2="122.08318"
       y1="113.42201"
       x1="122.08318"
       id="linearGradient2558"
       xlink:href="#linearGradient2556"
       inkscape:collect="always" />
  </defs>
  <sodipodi:namedview
     inkscape:window-maximized="1"
     inkscape:window-y="30"
     inkscape:window-x="0"
     inkscape:window-height="701"
     inkscape:window-width="1366"
     fit-margin-bottom="0"
     fit-margin-right="0"
     fit-margin-left="0"
     fit-margin-top="0"
     showgrid="false"
     inkscape:document-rotation="0"
     inkscape:current-layer="layer1"
     inkscape:document-units="mm"
     inkscape:cy="39.634999"
     inkscape:cx="46.074622"
     inkscape:zoom="1.5348148"
     inkscape:pageshadow="2"
     inkscape:pageopacity="0.0"
     borderopacity="1.0"
     bordercolor="#666666"
     pagecolor="#ffffff"
     id="base" />
  <metadata
     id="metadata1962">
    <rdf:RDF>
      <cc:Work
         rdf:about="">
        <dc:format>image/svg+xml</dc:format>
        <dc:type
           rdf:resource="http://purl.org/dc/dcmitype/StillImage" />
        <dc:title></dc:title>
      </cc:Work>
    </rdf:RDF>
  </metadata>
  <g
     transform="translate(-95.754668,-107.89522)"
     id="layer1"
     inkscape:groupmode="layer"
     inkscape:label="Layer 1">
    <path
       id="path1920"
       style="font-style:normal;font-variant:normal;font-weight:normal;font-stretch:normal;font-size:10.5833px;line-height:1.25;font-family:Young;-inkscape-font-specification:Young;letter-spacing:0px;word-spacing:0px;fill:url(#linearGradient2558);fill-opacity:1;stroke-width:0.264583"
       d="m 139.8414,107.89523 c -0.5433,0 -1.05122,0.10235 -1.52395,0.30696 -0.47273,0.20461 -0.8854,0.48335 -1.23817,0.83612 -0.34573,0.35278 -0.62119,0.76545 -0.82579,1.23817 -0.20461,0.47272 -0.30695,0.97687 -0.30695,1.51309 0,1.7e-4 0,2.6e-4 0,5.3e-4 0,0.2681 0.0259,0.52808 0.077,0.78031 0.0512,0.25223 0.12764,0.49591 0.22995,0.73226 8e-5,1.5e-4 -5e-5,2.6e-4 0,5.3e-4 0.0167,0.0386 0.0366,0.0743 0.0543,0.11213 0.0904,0.19367 0.19034,0.37932 0.30541,0.55191 0.13751,0.20626 0.29337,0.39781 0.46612,0.57412 8e-5,1e-4 -8e-5,5.3e-4 0,5.3e-4 0.0882,0.0882 0.18026,0.17125 0.27596,0.25012 0.19134,0.15787 0.39772,0.29723 0.61907,0.41806 0.11068,0.0605 0.22495,0.11629 0.34314,0.16743 0.11819,0.0512 0.23868,0.0961 0.36121,0.13436 0.12255,0.0383 0.24714,0.0705 0.37414,0.0961 0.127,0.0256 0.25612,0.0446 0.38757,0.0574 0.13144,0.0127 0.26519,0.0191 0.40103,0.0191 0.13403,0 0.2663,-0.006 0.39634,-0.0191 0.13004,-0.0127 0.25784,-0.0318 0.38396,-0.0574 0.12595,-0.0256 0.25012,-0.0579 0.37206,-0.0961 0.12213,-0.0384 0.24255,-0.0832 0.36071,-0.13436 0.16288,-0.0705 0.31586,-0.15323 0.46458,-0.24133 0.17497,-0.10366 0.3429,-0.21614 0.49816,-0.34416 0.0957,-0.0789 0.18775,-0.16193 0.27596,-0.25012 8e-5,-9e-5 -1.1e-4,-5.3e-4 0,-5.3e-4 0.0881,-0.0881 0.17174,-0.17985 0.25061,-0.27543 8e-5,-1.1e-4 -8e-5,-5.3e-4 0,-5.3e-4 0.0337,-0.0409 0.0636,-0.0849 0.0956,-0.12713 0.11795,-0.15554 0.22744,-0.31786 0.32248,-0.49195 0.0604,-0.11067 0.11633,-0.2251 0.16742,-0.34314 6e-5,-1.5e-4 -5e-5,-2.6e-4 0,-5.3e-4 0.10232,-0.23635 0.17884,-0.48002 0.22995,-0.73225 0.0512,-0.25223 0.0765,-0.51222 0.0765,-0.78032 0,-1.7e-4 0,-2.6e-4 0,-5.3e-4 0,-0.53622 -0.10183,-1.04036 -0.30644,-1.51308 -0.20459,-0.47272 -0.48336,-0.88539 -0.8361,-1.23817 -0.3528,-0.35277 -0.76597,-0.63151 -1.2387,-0.83612 -0.47271,-0.20461 -0.97687,-0.30696 -1.51307,-0.30696 z m -15.6709,0.17984 v 2.94194 c -0.23284,-0.24695 -0.50121,-0.44078 -0.8046,-0.58188 -0.30337,-0.14111 -0.63114,-0.21187 -0.98391,-0.21187 -0.35277,0 -0.68432,0.074 -0.99478,0.2222 -0.30337,0.14112 -0.57176,0.33546 -0.8046,0.5824 -0.22577,0.24694 -0.40544,0.53604 -0.53951,0.86764 -0.13404,0.33162 -0.201,0.68819 -0.201,1.06919 0,0.37394 0.067,0.72672 0.201,1.05833 0.13407,0.33161 0.31374,0.6207 0.53951,0.86765 0.23284,0.24694 0.50123,0.44076 0.8046,0.58188 0.31046,0.1411 0.64201,0.21187 0.99478,0.21187 0.35277,0 0.68054,-0.067 0.98391,-0.20102 0.30339,-0.13405 0.57176,-0.3246 0.8046,-0.57154 v 0.58187 h 0.89968 v -7.41866 z m -28.415832,0.0103 v 7.40834 h 4.657092 v -0.97359 h -3.661809 v -6.43475 z m 44.086732,0.78342 c 0.40214,0 0.77615,0.0773 1.12188,0.23254 0.35277,0.15522 0.65932,0.36699 0.92035,0.6351 0.26107,0.26106 0.46575,0.5681 0.61392,0.92088 0.15523,0.35277 0.23307,0.73006 0.23307,1.13223 0,0.009 0,0.0171 0,0.0259 -0.003,7.9e-4 -0.003,0.001 -0.005,0.002 -1.02775,0.44029 -2.12204,0.65349 -2.85149,0.0248 -0.63373,-0.54616 -1.40076,-0.7128 -2.11926,-0.70642 -0.2395,0.002 -0.47356,0.0234 -0.69557,0.0563 -0.0214,0.003 -0.0405,0.007 -0.0615,0.0109 0.0371,-0.18795 0.0926,-0.36997 0.16644,-0.54571 0.1552,-0.35278 0.36369,-0.65982 0.62476,-0.92087 0.26106,-0.26812 0.56758,-0.47988 0.92035,-0.63511 0.3528,-0.15522 0.73059,-0.23254 1.13276,-0.23254 z m -10.61953,1.3441 c -0.26104,0 -0.49075,0.0354 -0.68832,0.10594 -0.1905,0.0635 -0.34893,0.13754 -0.47596,0.22221 -0.12694,0.0776 -0.22606,0.15165 -0.29659,0.2222 l -0.10594,0.10594 v -0.45527 h -0.89919 v 5.0798 h 0.89919 v -3.12178 c 0.007,-0.0847 0.0283,-0.19789 0.0635,-0.339 0.0353,-0.14816 0.10604,-0.29245 0.21188,-0.43356 0.11287,-0.14817 0.26805,-0.27174 0.46558,-0.37052 0.20463,-0.10583 0.47631,-0.15865 0.81495,-0.15865 0.20463,0 0.37065,0.0245 0.49765,0.0739 l 0.1266,-0.86765 c -0.18343,-0.0423 -0.38761,-0.0636 -0.61341,-0.0636 z m -25.7328,0.0103 c -0.35276,0 -0.68431,0.074 -0.99475,0.22221 -0.3034,0.14111 -0.57179,0.33546 -0.80462,0.58239 -0.22577,0.24695 -0.40545,0.53605 -0.53949,0.86765 -0.13406,0.33162 -0.20103,0.6844 -0.20103,1.05834 0,0.381 0.067,0.73757 0.20103,1.06918 0.13404,0.33161 0.31372,0.6207 0.53949,0.86765 0.23283,0.24694 0.50122,0.44076 0.80462,0.58188 0.31044,0.1411 0.64199,0.21187 0.99475,0.21187 0.35277,0 0.68054,-0.067 0.98394,-0.20102 0.30339,-0.14111 0.56798,-0.33545 0.79375,-0.5824 v 0.59273 h 0.91053 v -5.07979 h -0.91053 v 0.59273 c -0.22577,-0.24695 -0.49036,-0.43749 -0.79375,-0.57154 -0.3034,-0.14112 -0.63117,-0.21188 -0.98394,-0.21188 z m 13.04108,0 c -0.254,0 -0.47993,0.0354 -0.67749,0.10594 -0.1905,0.0635 -0.35272,0.13426 -0.48678,0.21187 -0.127,0.0776 -0.22556,0.15166 -0.2961,0.22221 -0.0635,0.0706 -0.0989,0.10594 -0.10594,0.10594 v -0.45527 h -0.89969 v 5.07979 h 0.89969 v -3.11144 c 0.007,-0.0847 0.0283,-0.19737 0.0635,-0.33847 0.0353,-0.14817 0.10554,-0.29298 0.21135,-0.43409 0.1129,-0.14816 0.26805,-0.27174 0.46561,-0.37052 0.20461,-0.10583 0.47628,-0.15864 0.81495,-0.15864 0.28223,0 0.50813,0.0528 0.67746,0.15864 0.16934,0.10584 0.2962,0.23321 0.38087,0.38138 0.0846,0.14816 0.13795,0.30333 0.15915,0.4656 0.0282,0.16228 0.0419,0.30001 0.0419,0.41289 v 2.99465 h 0.89969 v -3.03702 -0.14831 c 0,-0.0494 -0.003,-0.10218 -0.0103,-0.15865 -0.007,-0.0635 -0.018,-0.13427 -0.032,-0.21187 -0.0282,-0.16228 -0.081,-0.34195 -0.15865,-0.53951 -0.0776,-0.20461 -0.1974,-0.39187 -0.35967,-0.5612 -0.15523,-0.17639 -0.36372,-0.32068 -0.62476,-0.43357 -0.254,-0.11994 -0.5747,-0.18035 -0.96274,-0.18035 z m 31.04719,0 c -0.254,0 -0.47991,0.0354 -0.67747,0.10594 -0.1905,0.0635 -0.35274,0.13426 -0.48681,0.21187 -0.12694,0.0776 -0.22606,0.15166 -0.29659,0.22221 -0.0635,0.0706 -0.0984,0.10594 -0.10544,0.10594 v -0.45527 h -0.89969 v 5.07979 h 0.89969 v -3.11144 c 0.007,-0.0847 0.0278,-0.19737 0.0631,-0.33847 0.0353,-0.14817 0.10604,-0.29298 0.21188,-0.43409 0.1129,-0.14816 0.26805,-0.27174 0.46558,-0.37052 0.20463,-0.10583 0.47631,-0.15864 0.81495,-0.15864 0.28223,0 0.50816,0.0528 0.67749,0.15864 0.16931,0.10584 0.29617,0.23321 0.38084,0.38138 0.0846,0.14816 0.13745,0.30333 0.15865,0.4656 0.0282,0.16228 0.0424,0.30001 0.0424,0.41289 v 2.99465 h 0.89968 v -3.03702 -0.14831 c 0,-0.0494 -0.004,-0.10218 -0.0109,-0.15865 -0.007,-0.0635 -0.0175,-0.13427 -0.0315,-0.21187 -0.0282,-0.16228 -0.081,-0.34195 -0.15864,-0.53951 -0.0776,-0.20461 -0.19738,-0.39187 -0.35967,-0.5612 -0.15521,-0.17639 -0.3637,-0.32068 -0.62476,-0.43357 -0.254,-0.11994 -0.57468,-0.18035 -0.96274,-0.18035 z m -39.8203,0.19069 v 3.03754 0.14779 c 0,0.1129 0.0143,0.23647 0.0424,0.37052 0.0282,0.16228 0.081,0.34575 0.15867,0.55036 0.0776,0.19755 0.1941,0.38481 0.34933,0.5612 0.16227,0.16934 0.37023,0.31035 0.62423,0.42323 0.254,0.11994 0.57521,0.17984 0.96327,0.17984 0.26104,0 0.48697,-0.0354 0.67747,-0.10594 0.19756,-0.0635 0.3598,-0.13374 0.4868,-0.21136 0.13402,-0.0776 0.23257,-0.15165 0.2961,-0.2222 l 0.10594,-0.10594 v 0.45475 h 0.91001 v -5.07979 h -0.91001 v 3.11144 c -0.007,0.0847 -0.0283,0.20116 -0.0635,0.34933 -0.0353,0.14817 -0.10605,0.29297 -0.21188,0.43408 -0.10584,0.14111 -0.26101,0.26417 -0.46562,0.37001 -0.2046,0.10583 -0.47627,0.15916 -0.81494,0.15916 -0.2822,0 -0.50763,-0.0533 -0.67696,-0.15916 -0.16227,-0.10584 -0.28586,-0.23269 -0.37053,-0.38086 -0.0847,-0.14817 -0.14128,-0.30333 -0.16949,-0.4656 -0.0212,-0.16228 -0.0315,-0.30329 -0.0315,-0.42324 v -2.99516 z m 22.28855,0 2.14871,4.98471 -1.06918,2.48718 0.78341,0.39171 3.39722,-7.8636 h -0.96324 l -1.67228,3.87366 -1.67224,-3.87366 z m -26.48262,0.68781 c 0.23284,0 0.4517,0.0495 0.6563,0.14832 0.21167,0.0988 0.39513,0.2327 0.55036,0.40204 0.15521,0.16227 0.27498,0.35661 0.35965,0.58239 0.0917,0.22577 0.13748,0.46534 0.13748,0.71934 0,0.254 -0.0457,0.49407 -0.13748,0.71985 -0.0847,0.22577 -0.20444,0.4234 -0.35965,0.59273 -0.15523,0.16228 -0.33869,0.29242 -0.55036,0.39119 -0.2046,0.0988 -0.42346,0.14831 -0.6563,0.14831 -0.23283,0 -0.45495,-0.0495 -0.66662,-0.14831 -0.2046,-0.0988 -0.38478,-0.22891 -0.54001,-0.39119 -0.15523,-0.16933 -0.27829,-0.36696 -0.37002,-0.59273 -0.0917,-0.22578 -0.13795,-0.46585 -0.13795,-0.71985 0,-0.254 0.0463,-0.49357 0.13795,-0.71934 0.0917,-0.22578 0.21479,-0.42012 0.37002,-0.58239 0.15523,-0.16934 0.33541,-0.30327 0.54001,-0.40204 0.21167,-0.0988 0.43379,-0.14832 0.66662,-0.14832 z m 18.89292,0 c 0.23283,0 0.45167,0.0495 0.65627,0.14832 0.21167,0.0988 0.39516,0.2327 0.55036,0.40204 0.15523,0.16933 0.27879,0.36695 0.37052,0.59273 0.0917,0.22577 0.13746,0.46585 0.13746,0.71985 0,0.25399 -0.0457,0.49355 -0.13746,0.71933 -0.0917,0.22579 -0.21529,0.4234 -0.37052,0.59273 -0.1552,0.16228 -0.33869,0.29293 -0.55036,0.39171 -0.2046,0.0917 -0.42344,0.13746 -0.65627,0.13746 -0.23283,0 -0.45498,-0.0457 -0.66664,-0.13746 -0.20461,-0.0988 -0.38479,-0.22943 -0.54002,-0.39171 -0.1552,-0.16933 -0.27826,-0.36694 -0.36999,-0.59273 -0.0847,-0.22578 -0.12714,-0.46534 -0.12714,-0.71933 0,-0.254 0.0425,-0.49408 0.12714,-0.71985 0.0917,-0.22578 0.21479,-0.4234 0.36999,-0.59273 0.15523,-0.16934 0.33541,-0.30327 0.54002,-0.40204 0.21166,-0.0988 0.43381,-0.14832 0.66664,-0.14832 z" />
  </g>
</svg>
